<?xml version="1.0" encoding="utf-8"?>
<!-- Generator: Adobe Illustrator 23.0.3, SVG Export Plug-In . SVG Version: 6.00 Build 0)  -->
<svg version="1.1" id="Layer_1" xmlns="http://www.w3.org/2000/svg" xmlns:xlink="http://www.w3.org/1999/xlink" x="0px" y="0px"
	 viewBox="0 0 144.7 107" style="enable-background:new 0 0 144.7 107;" xml:space="preserve">
<style type="text/css">
	.st0{fill:#5CC4C4;}
	.st1{fill:#293895;}
	.st2{fill:#2555A5;}
	.st3{fill:#1B75BB;}
</style>
<path class="st0" d="M82.4,39.3c0.4-0.9,0.7-1.8,0.7-2.8c0-2.5-0.9-4.2-2.3-5.4c-0.3,0.2-0.6,0.4-0.9,0.6c-0.8,0.6-1.6,1.2-2.4,1.7
	c-0.6,0.4-1.2,0.8-1.8,1.2c2.3,1.1,4,2.5,4,5c0,1.5-0.9,4.4-5.7,4.4c-0.4,0-0.7,0-1.1-0.1c-0.3,0-0.7-0.1-1-0.2c0,0,0,0-0.1,0
	c0,0,0,0,0,0c-1.5-0.4-2.8-1.1-3.7-2c-0.6-0.5-1-1.1-1.4-1.8c-2.2-3.7-1.7-8.5-1.7-8.5s-2.3,5.8-2.2,7.8c0.1,2,2.6,10.6,11.3,10.3
	c7.6-0.3,9.9-5.5,9.9-5.5l-0.3-4.5L82.4,39.3z M75.4,44.1c0.5-0.1,1-0.2,1.5-0.3C76.4,44,75.9,44.1,75.4,44.1"/>
<path class="st0" d="M80.2,22.1c0.1,2.5-1.8,3.9-4.1,5c1.7,0.7,3.4,1.3,5.2,2c0.2,0.1,0.4,0.2,0.6,0.3c0.9-1.1,1.5-2.5,1.4-4.5
	c-0.1-2.5-1.8-4.6-4.3-5.8c0,0.1-0.2,0.2-0.3,0.2C79.8,20.2,80.2,21.4,80.2,22.1"/>
<path class="st1" d="M67.6,0v8c0,3.8,2.3,7.2,5.8,8.7c4.8,2,9.2,4,9.2,9.1c0,1.3-0.5,3.4-2.2,4.9c0.2,0,0.4,0.2,0.5,0.4
	c4.2-2.1,7-6,7-10.3C87.9,6.3,67.9,9.4,67.6,0"/>
<path class="st1" d="M56.3,12.7v17.6c0.9-0.4,1.8-8.4,2.8-8.8c3.5-1.5,5.8-4.9,5.8-8.7v-8C64.8,9.1,60.7,10.9,56.3,12.7"/>
<path class="st1" d="M67.6,17.1v8c0,3.8,2.3,7.2,5.8,8.7c4.8,2,9.2,4,9.2,9.1c0,2.3-1.4,6.9-8.9,6.9c-6.6,0-11.3-4.4-11.9-7.6
	c-0.1-0.1-0.1-0.2-0.2-0.3c0,0.3,0.1,0.5,0.2,0.9c1,3.2,5.5,7.1,11.8,7.1c7.8,0,14.2-5.6,14.2-12C87.9,23.4,67.9,26.5,67.6,17.1"/>
<path class="st1" d="M64.9,46.8c0,0-8.6-6.4-8.6-16.5V24c0-13.2,8.6-14.4,8.6-14.4V46.8z"/>
<path class="st1" d="M64.9,36.9c0,0-0.7,12.9,8.4,12.9c0,0-7.1,0.1-10.6-5.5L64.9,36.9z"/>
<path class="st1" d="M87.9,4.3c0,2.3-1.9,4.3-4.3,4.3s-4.3-1.9-4.3-4.3c0-2.3,1.9-4.3,4.3-4.3S87.9,1.9,87.9,4.3"/>
<path class="st1" d="M69.6,47.6l0.8-0.8c0.3-0.3,0.4-0.5,0.4-0.7c0-0.2-0.2-0.4-0.4-0.4s-0.3,0.1-0.5,0.3l-0.3-0.3
	c0.2-0.3,0.5-0.5,0.8-0.5c0.5,0,0.8,0.3,0.8,0.7l0,0c0,0.4-0.2,0.6-0.6,1l-0.5,0.6h1.1V48h-1.7L69.6,47.6L69.6,47.6z"/>
<path class="st1" d="M71.7,46.7L71.7,46.7c0-0.8,0.4-1.4,1-1.4c0.6,0,1,0.5,1,1.3v0c0,0.8-0.4,1.3-1,1.3
	C72.1,48,71.7,47.5,71.7,46.7 M73.2,46.7L73.2,46.7c0-0.6-0.2-1-0.6-1c-0.3,0-0.6,0.3-0.6,0.9v0c0,0.6,0.2,0.9,0.6,0.9
	C73,47.6,73.2,47.3,73.2,46.7"/>
<polygon class="st1" points="74.5,45.8 74.1,45.9 74,45.5 74.6,45.3 74.9,45.3 74.9,48 74.5,48 "/>
<path class="st1" d="M75.5,47.3L75.5,47.3c0-0.3,0.2-0.5,0.4-0.6c-0.2-0.1-0.3-0.3-0.3-0.6v0c0-0.4,0.3-0.7,0.8-0.7
	c0.5,0,0.8,0.3,0.8,0.7v0c0,0.3-0.2,0.5-0.3,0.6c0.3,0.1,0.4,0.3,0.4,0.6v0c0,0.5-0.4,0.8-0.9,0.8C75.9,48,75.5,47.7,75.5,47.3
	 M76.8,47.2L76.8,47.2c0-0.3-0.2-0.4-0.5-0.4s-0.5,0.2-0.5,0.4v0c0,0.2,0.2,0.4,0.5,0.4C76.7,47.6,76.8,47.5,76.8,47.2 M76.8,46
	L76.8,46c0-0.2-0.2-0.4-0.4-0.4S76,45.8,76,46l0,0c0,0.2,0.2,0.4,0.4,0.4S76.8,46.3,76.8,46"/>
<g>
	<path class="st2" d="M47.5,59.1h2.6v11.6h-2.6V59.1z"/>
	<path class="st2" d="M50.9,69.2l1.4-2.2c0.8,0.8,1.8,1.3,2.8,1.3c0.7,0,1.1-0.3,1.1-0.8v0c0-0.5-0.3-0.7-1.5-1.2
		c-1.9-0.7-3.3-1.5-3.3-3.7v-0.1c0-2.1,1.4-3.6,3.7-3.6c1.4,0,2.6,0.4,3.7,1.4l-1.3,2.2c-0.7-0.6-1.5-1.1-2.4-1.1
		c-0.6,0-0.9,0.3-0.9,0.8v0c0,0.5,0.3,0.8,1.6,1.3c1.9,0.7,3.2,1.6,3.2,3.6v0c0,2.3-1.5,3.7-3.7,3.7C53.6,70.9,52.1,70.4,50.9,69.2z
		"/>
	<path class="st2" d="M60,59.1h3.7c2.4,0,4,1.4,4,4v0.1c0,2.8-1.8,4.1-4,4.2h-1v3.4H60V59.1z M63.5,64.9c0.9,0,1.5-0.6,1.5-1.6v0
		c0-1.1-0.5-1.6-1.5-1.6h-0.9v3.3H63.5z"/>
	<path class="st2" d="M70.6,59h2.7l3.6,11.7h-2.8l-0.6-2.1h-3.2l-0.6,2.1H67L70.6,59z M72.8,66.2l-0.9-3.4l-0.9,3.4H72.8z"/>
	<path class="st2" d="M77.7,59.1h4c1.4,0,2.4,0.4,3.1,1.2c0.6,0.6,0.9,1.5,0.9,2.7v0.1c0,1.7-0.7,2.8-1.8,3.4l2.1,4.2h-3l-1.7-3.6
		h-0.9v3.6h-2.6V59.1z M81.6,64.7c0.9,0,1.4-0.6,1.4-1.5v0c0-1-0.6-1.5-1.4-1.5h-1.3v3H81.6z"/>
	<path class="st2" d="M88.9,61.8h-2.5v-2.7H94v2.7h-2.5v8.9h-2.6V61.8z"/>
	<path class="st2" d="M96.9,59h2.7l3.6,11.7h-2.8l-0.6-2.1h-3.2L96,70.7h-2.7L96.9,59z M99.1,66.2l-0.9-3.4l-0.9,3.4H99.1z"/>
	<path class="st3" d="M15.9,82.9v-5.7h1.3v5.7c0,1.5,0.6,2.3,1.7,2.3c1,0,1.7-0.7,1.7-2.2v-5.7h1.3v5.6c0,2.5-1.2,3.7-3,3.7
		C17.1,86.6,15.9,85.3,15.9,82.9z"/>
	<path class="st3" d="M25.5,82.8l-2.7-5.5h1.5l1.9,4l1.9-4h1.5l-2.7,5.5v3.7h-1.3V82.8z"/>
	<path class="st3" d="M29.7,81.9v-0.1c0-2.7,1.5-4.7,3.7-4.7c1.1,0,1.8,0.4,2.6,1l-0.8,1.2c-0.5-0.5-1-0.8-1.8-0.8
		c-1.3,0-2.3,1.3-2.3,3.2v0.1c0,2.1,1,3.3,2.4,3.3c0.6,0,1.1-0.2,1.4-0.5v-2h-1.7v-1.3h3v4.1c-0.7,0.6-1.6,1.1-2.8,1.1
		C31.2,86.6,29.7,84.7,29.7,81.9z"/>
	<path class="st3" d="M37.6,82.9v-5.7H39v5.7c0,1.5,0.6,2.3,1.7,2.3c1,0,1.7-0.7,1.7-2.2v-5.7h1.3v5.6c0,2.5-1.2,3.7-3,3.7
		C38.8,86.6,37.6,85.3,37.6,82.9z"/>
	<path class="st3" d="M45.3,77.3h1.3V85h3.5v1.4h-4.8V77.3z"/>
	<path class="st3" d="M53.6,77.2h1.3l3,9.2h-1.4l-0.7-2.2h-3.1L52,86.4h-1.3L53.6,77.2z M55.4,82.9l-1.2-3.7l-1.2,3.7H55.4z"/>
	<path class="st3" d="M59,77.3h1.4l2.1,4.2l2.1-4.2H66v9.2h-1.3V80l-2.1,4.2h0L60.3,80v6.5H59V77.3z"/>
	<path class="st3" d="M70.1,77.2h1.3l3,9.2h-1.4l-0.7-2.2h-3.1l-0.7,2.2h-1.3L70.1,77.2z M71.8,82.9l-1.2-3.7l-1.2,3.7H71.8z"/>
	<path class="st3" d="M75.5,77.3h1.3V85h3.5v1.4h-4.8V77.3z"/>
	<path class="st3" d="M81.5,77.3h1.3v9.2h-1.3V77.3z"/>
	<path class="st3" d="M87.6,77.3h2.9c0.9,0,1.6,0.3,2.1,0.8c0.4,0.4,0.5,0.9,0.5,1.5v0c0,1.1-0.6,1.7-1.2,2.1c0.9,0.4,1.5,1,1.5,2.2
		v0.1c0,1.6-1.2,2.5-2.9,2.5h-3V77.3z M91.8,79.8c0-0.8-0.5-1.2-1.4-1.2H89v2.5h1.4C91.2,81.2,91.8,80.7,91.8,79.8L91.8,79.8z
		 M90.6,82.5H89v2.6h1.7c0.9,0,1.5-0.5,1.5-1.3v0C92.1,83,91.6,82.5,90.6,82.5z"/>
	<path class="st3" d="M94.9,75.2h1.3v1.4h-1.3V75.2z M94.9,77.3h1.3v9.2h-1.3V77.3z"/>
	<path class="st3" d="M98,77.3h1.3V85h3.5v1.4H98V77.3z"/>
	<path class="st3" d="M104.1,75.2h1.3v1.4h-1.3V75.2z M104.1,77.3h1.3v9.2h-1.3V77.3z"/>
	<path class="st3" d="M107.2,77.3h1.4l2.1,4.2l2.1-4.2h1.4v9.2h-1.3V80l-2.1,4.2h0l-2.1-4.2v6.5h-1.3V77.3z"/>
	<path class="st3" d="M115.9,77.3h1.3V85h3.5v1.4h-4.8V77.3z"/>
	<path class="st3" d="M121.9,77.3h5.1v1.4h-3.8v2.5h3.3v1.4h-3.3v2.6h3.8v1.4h-5.1V77.3z"/>
	<path class="st3" d="M128.4,77.3h2.9c0.9,0,1.7,0.3,2.2,0.9c0.4,0.5,0.7,1.2,0.7,2v0.1c0,1.4-0.7,2.3-1.7,2.7l1.9,3.5h-1.5
		l-1.7-3.2c0,0-0.1,0-0.1,0h-1.3v3.2h-1.3V77.3z M131.2,81.8c1,0,1.6-0.6,1.6-1.6v0c0-1-0.6-1.6-1.6-1.6h-1.5v3.2H131.2z"/>
	<path class="st2" d="M31.1,101.8v-7h2.6v7.1c0,1.4,0.6,2.1,1.5,2.1c0.9,0,1.5-0.6,1.5-2v-7.1h2.7v7c0,3.4-1.7,4.9-4.2,4.9
		C32.7,106.6,31.1,105.1,31.1,101.8z M32.7,91.9h2.2V94h-2.2V91.9z M35.6,91.9h2.2V94h-2.2V91.9z"/>
	<path class="st2" d="M40.8,94.7h2.5l3.4,5.9v-5.9h2.6v11.6h-2.3l-3.5-6.1v6.1h-2.6V94.7z"/>
	<path class="st2" d="M50.8,94.7h2.6v11.6h-2.6V94.7z M51,91.9h2.2V94H51V91.9z"/>
	<path class="st2" d="M54.3,94.7h2.9l1.9,7.2l1.9-7.2h2.8l-3.4,11.7h-2.5L54.3,94.7z"/>
	<path class="st2" d="M64.6,94.7h7v2.6h-4.4v1.9h4v2.5h-4v2h4.5v2.6h-7.1V94.7z"/>
	<path class="st2" d="M72.9,94.7h4c1.4,0,2.4,0.4,3.1,1.2c0.6,0.6,0.9,1.5,0.9,2.7v0.1c0,1.7-0.7,2.8-1.8,3.4l2.1,4.2h-3l-1.7-3.6
		h-0.9v3.6h-2.6V94.7z M76.8,100.4c0.9,0,1.4-0.6,1.4-1.5v0c0-1-0.6-1.5-1.4-1.5h-1.3v3H76.8z"/>
	<path class="st2" d="M81.3,104.8l1.4-2.2c0.8,0.8,1.8,1.3,2.8,1.3c0.7,0,1.1-0.3,1.1-0.8v0c0-0.5-0.3-0.7-1.5-1.2
		c-1.9-0.7-3.3-1.5-3.3-3.7v-0.1c0-2.1,1.4-3.6,3.7-3.6c1.4,0,2.6,0.4,3.7,1.4l-1.3,2.2c-0.7-0.6-1.5-1.1-2.4-1.1
		c-0.6,0-0.9,0.3-0.9,0.8v0c0,0.5,0.3,0.8,1.6,1.3c1.9,0.7,3.2,1.6,3.2,3.6v0c0,2.3-1.5,3.7-3.7,3.7C83.9,106.6,82.5,106,81.3,104.8
		z"/>
	<path class="st2" d="M90.4,94.7H93v11.6h-2.6V94.7z M90.6,91.9h2.2V94h-2.2V91.9z"/>
	<path class="st2" d="M96.6,97.4h-2.5v-2.7h7.7v2.7h-2.5v8.9h-2.6V97.4z"/>
	<path class="st2" d="M102.8,94.7h7v2.6h-4.4v1.9h4v2.5h-4v2h4.5v2.6h-7.1V94.7z"/>
	<path class="st2" d="M110.4,104.8l1.4-2.2c0.8,0.8,1.8,1.3,2.8,1.3c0.7,0,1.1-0.3,1.1-0.8v0c0-0.5-0.3-0.7-1.5-1.2
		c-1.9-0.7-3.3-1.5-3.3-3.7v-0.1c0-2.1,1.4-3.6,3.7-3.6c1.4,0,2.6,0.4,3.7,1.4l-1.3,2.2c-0.7-0.6-1.5-1.1-2.4-1.1
		c-0.6,0-0.9,0.3-0.9,0.8v0c0,0.5,0.3,0.8,1.6,1.3c1.9,0.7,3.2,1.6,3.2,3.6v0c0,2.3-1.5,3.7-3.7,3.7
		C113.1,106.6,111.6,106,110.4,104.8z"/>
	<path class="st2" d="M119.5,94.7h2.6v11.6h-2.6V94.7z M119.7,91.9h2.2V94h-2.2V91.9z"/>
</g>
</svg>
